<svg xmlns="http://www.w3.org/2000/svg" width="118.528" height="96.425" viewBox="0 0 118.528 96.425"><defs><style>.a{fill:#0f3577;}</style></defs><path class="a" d="M59.462,97.982v8.184h29.4l3.92,3.92V114H18.3v-3.92l3.92-3.92h29.4V97.978H9.606A9.643,9.643,0,0,1,0,88.37V27.186A9.638,9.638,0,0,1,9.606,17.58h91.871a9.631,9.631,0,0,1,9.608,9.606V46.793a29,29,0,0,0-3.92-3.677V27.186a5.693,5.693,0,0,0-5.689-5.686H9.606A5.69,5.69,0,0,0,3.92,27.186V76.613A5.69,5.69,0,0,0,9.606,82.3H66.3A28.766,28.766,0,0,0,89.814,94.6a28.2,28.2,0,0,0,4.651-.425l2.205,3.805H59.462Zm51.776-44.45a24.773,24.773,0,1,1-33.846-9.062A24.788,24.788,0,0,1,111.238,53.532Zm-3.552,2.058a20.668,20.668,0,1,0-7.572,28.243A20.713,20.713,0,0,0,107.686,55.589Zm.7,30.249L97.741,91.994l8.208,14.186,10.649-6.156Zm9.31,16.138-10.657,6.147a6.151,6.151,0,1,0,10.657-6.147ZM67.929,35.22H16.345v3.92H67.929ZM54.563,44.477H16.345V48.4H54.562v-3.92Zm0,9.262H16.345v3.92H54.562v-3.92ZM16.345,66.917H54.562V63H16.345Z" transform="translate(0 -17.58)"/></svg>