<svg xmlns="http://www.w3.org/2000/svg" width="100.553" height="100.553" viewBox="0 0 100.553 100.553"><defs><style>.a{fill:#0f3577;}</style></defs><path class="a" d="M50.277,0a50.277,50.277,0,1,0,50.277,50.277A50.234,50.234,0,0,0,50.277,0Zm0,94.638A44.685,44.685,0,0,1,5.915,50.277,44.685,44.685,0,0,1,50.277,5.915,44.685,44.685,0,0,1,94.638,50.277,44.685,44.685,0,0,1,50.277,94.638Z"/><path class="a" d="M124.724,79.831a2.958,2.958,0,1,0,5.915,0c0-6.915-6.714-12.356-15.379-13.385V63.861a2.958,2.958,0,1,0-5.915,0v2.585c-8.665,1.035-15.379,6.471-15.379,13.385s6.714,12.356,15.379,13.385v15.326c-5.229-.869-9.464-3.922-9.464-7.417a2.958,2.958,0,1,0-5.915,0c0,6.914,6.714,12.356,15.379,13.385V117.1a2.958,2.958,0,0,0,5.915,0V114.51c8.665-1.035,15.379-6.471,15.379-13.385s-6.714-12.356-15.379-13.385V72.414C120.489,73.283,124.724,76.335,124.724,79.831Zm-24.843,0c0-3.5,4.235-6.548,9.464-7.417V87.248C104.116,86.379,99.881,83.327,99.881,79.831Zm24.843,21.294c0,3.5-4.235,6.548-9.464,7.417V93.707C120.489,94.577,124.724,97.629,124.724,101.125Z" transform="translate(-62.026 -40.201)"/></svg>