<svg xmlns="http://www.w3.org/2000/svg" width="116.836" height="83.264" viewBox="0 0 116.836 83.264"><defs><style>.a{fill:#0f3577;}</style></defs><path class="a" d="M107.791,75.31H9.036A9.091,9.091,0,0,0,0,84.346v65.191a9.091,9.091,0,0,0,9.036,9.036h98.755a9.091,9.091,0,0,0,9.036-9.036V84.346A8.822,8.822,0,0,0,107.791,75.31ZM74.012,119.416l37.651-29.045v58.306ZM9.252,80.689h98.539a3.939,3.939,0,0,1,3.658,2.8L61.533,122.213a5.808,5.808,0,0,1-6.885,0l-49.27-38.3A4.134,4.134,0,0,1,9.252,80.689ZM5.379,148.677V90.8L42.6,119.631Zm3.873,4.948a1.612,1.612,0,0,1-1.076-.215l38.942-30.336,4.3,3.442a10.752,10.752,0,0,0,6.67,2.152,10.339,10.339,0,0,0,6.67-2.152l4.733-3.658,39.373,30.552a1.94,1.94,0,0,1-1.076.215H9.252Z" transform="translate(0 -75.31)"/></svg>