<svg xmlns="http://www.w3.org/2000/svg" xmlns:xlink="http://www.w3.org/1999/xlink" width="239.303" height="63.736" viewBox="0 0 239.303 63.736"><defs><style>.a{fill:url(#a);}.b,.c,.i{fill:#fff;}.b,.c,.d,.e{stroke:#fff;stroke-miterlimit:10;}.c,.d,.e{stroke-linejoin:bevel;}.d,.e,.h{fill:none;}.e{stroke-width:0.5px;}.f{fill:url(#b);}.g{opacity:0.3;}.i{font-size:20px;font-family:Arial-BoldMT, Arial;font-weight:700;}.j{fill:url(#c);}.k{fill:url(#d);}.l{fill:url(#e);}.m{fill:url(#f);}.n{fill:url(#g);}.o{fill:url(#h);}.p{fill:url(#i);}.q{fill:url(#j);}</style><linearGradient id="a" x1="-0.067" y1="0.785" x2="1.623" y2="-0.064" gradientUnits="objectBoundingBox"><stop offset="0" stop-color="#0f3577"/><stop offset="0.5" stop-color="#820263"/><stop offset="1" stop-color="#d90368"/></linearGradient><linearGradient id="b" x1="-0.718" y1="1.033" x2="1.106" y2="0.079" xlink:href="#a"/><linearGradient id="c" x1="-5.154" y1="2.296" x2="6.356" y2="-0.049" xlink:href="#a"/><linearGradient id="d" x1="-8.534" y1="2.691" x2="7.3" y2="-0.407" xlink:href="#a"/><linearGradient id="e" x1="-9.999" y1="2.75" x2="6.22" y2="-0.416" xlink:href="#a"/><linearGradient id="f" x1="-10.485" y1="2.259" x2="4.661" y2="-0.048" xlink:href="#a"/><linearGradient id="g" x1="-12.609" y1="2.728" x2="3.649" y2="-0.438" xlink:href="#a"/><linearGradient id="h" x1="-13.465" y1="2.691" x2="2.369" y2="-0.407" xlink:href="#a"/><linearGradient id="i" x1="-11.064" y1="2.296" x2="0.855" y2="-0.049" xlink:href="#a"/><linearGradient id="j" x1="-14.374" y1="2.79" x2="-0.193" y2="-0.448" xlink:href="#a"/></defs><g transform="translate(-321.509 -571.209)"><path class="a" d="M370.925,618.255c-2.561-4.429-20.678-35.821-23.534-40.766-7.237-12.545-27.725-.718-20.48,11.823,6.212,10.758,23.15,39.7,23.695,40.673C357.689,642.619,378.173,630.792,370.925,618.255Z" transform="translate(-2.269 -0.447)"/><g transform="translate(321.58 571.39)"><circle class="b" cx="1.017" cy="1.017" r="1.017" transform="translate(16.031 38.471)"/><circle class="b" cx="1.017" cy="1.017" r="1.017" transform="translate(9.145 25.696)"/><circle class="b" cx="1.017" cy="1.017" r="1.017" transform="translate(17.894 28.221)"/><circle class="b" cx="1.017" cy="1.017" r="1.017" transform="translate(29.633 33.509)"/><circle class="b" cx="1.017" cy="1.017" r="1.017" transform="translate(30.444 23.566)"/><circle class="b" cx="1.017" cy="1.017" r="1.017" transform="translate(11.012 13.4)"/><circle class="b" cx="1.017" cy="1.017" r="1.017" transform="translate(24.328 9.229)"/><circle class="c" cx="0.549" cy="0.549" r="0.549" transform="translate(42.799 16.293)"/><path class="d" d="M352.8,645.09" transform="translate(-340.206 -615.36)"/><path class="d" d="M363.62,669.4" transform="translate(-346.662 -629.864)"/><path class="e" d="M379.126,648.388l-11.783-3.134-13.626,5.111L346.94,637.48l8.624,2.586-1.872,10.524-3.868,7.81" transform="translate(-336.71 -610.82)"/><path class="e" d="M321.58,599.214l12.033,1.565-1.8,12.126,15.135-16.616" transform="translate(-321.58 -586.246)"/><line class="e" x1="12.674" y2="4.748" transform="translate(18.854 24.498)"/><path class="e" d="M400.566,615.071l9.689-2L397.52,630.69" transform="translate(-366.887 -596.257)"/><line class="e" x2="10.214" y2="3.776" transform="translate(0.016 22.884)"/><path class="e" d="M351.4,600.663l13.336-4.373,8.33,8.863-2.166,5.591-.9,9.935L365.216,645.3" transform="translate(-339.371 -586.246)"/><line class="d" y1="10.044" x2="3.889" transform="translate(25.365 0)"/></g><path class="f" d="M425.4,573.694s-10.613,18.467-15,26.063c3.99,6.91,8.165,14.332,10.843,18.721,3.868,6.345.428,11.392.355,11.484.379-.456,32.428-56.272,32.428-56.272H425.4Z" transform="translate(-52.991 -1.372)"/><path class="g" d="M426.6,642.832c-2.545-4.466-11.819-20.379-12.307-21.222,0,0-3,5.143-3.893,6.684,3.99,6.91,7.781,14.03,10.553,18.358,4.449,6.938,1.622,10.008,1.109,11.093l6.265-10.786C428.331,645.983,427.306,644.071,426.6,642.832Z" transform="translate(-52.991 -29.962)"/><g transform="translate(399.784 590.973)"><rect class="h" width="161.016" height="20.387" transform="translate(0.012 4.83)"/><text class="i" transform="translate(0.012 18)"><tspan x="0" y="0">VendueRx</tspan></text><g transform="translate(0 4.834)"><path class="j" d="M521.8,649.677,515.45,631.92h3.889l4.494,13.142,4.345-13.142h3.8l-6.357,17.757Z" transform="translate(-515.45 -631.92)"/><path class="k" d="M566.889,652.39l3.393.569a5.567,5.567,0,0,1-2.065,2.84,6.069,6.069,0,0,1-3.53.976,5.758,5.758,0,0,1-4.966-2.19,7.363,7.363,0,0,1-1.271-4.433,7.112,7.112,0,0,1,1.67-5.01,5.49,5.49,0,0,1,4.227-1.811,5.715,5.715,0,0,1,4.53,1.9q1.658,1.894,1.585,5.809h-8.528a3.446,3.446,0,0,0,.823,2.356,2.576,2.576,0,0,0,1.96.843,2.083,2.083,0,0,0,1.343-.436A2.7,2.7,0,0,0,566.889,652.39Zm.194-3.441a3.279,3.279,0,0,0-.762-2.247,2.452,2.452,0,0,0-3.606.04,3.138,3.138,0,0,0-.714,2.2h5.083Z" transform="translate(-541.104 -638.727)"/><path class="l" d="M606.76,656.484h-3.4v-6.563a10.16,10.16,0,0,0-.218-2.695,1.9,1.9,0,0,0-.71-.952,2.03,2.03,0,0,0-1.182-.339,2.727,2.727,0,0,0-1.585.484,2.442,2.442,0,0,0-.964,1.283,11.079,11.079,0,0,0-.262,2.957v5.825h-3.4V643.62h3.163v1.888a5.266,5.266,0,0,1,6.3-1.771,3.457,3.457,0,0,1,1.412,1.037,3.748,3.748,0,0,1,.666,1.428,10.6,10.6,0,0,1,.19,2.287v8Z" transform="translate(-562.928 -638.727)"/><path class="m" d="M643.331,649.683h-3.162V647.8a5.115,5.115,0,0,1-1.86,1.642,4.777,4.777,0,0,1-2.162.541,4.9,4.9,0,0,1-3.8-1.787,8.726,8.726,0,0,1-.044-9.956,5,5,0,0,1,3.889-1.7,4.82,4.82,0,0,1,3.731,1.791V631.93h3.4Zm-9.084-6.712a5.9,5.9,0,0,0,.569,2.981,2.57,2.57,0,0,0,2.3,1.331,2.505,2.505,0,0,0,2-1,4.615,4.615,0,0,0,.823-2.985,5.05,5.05,0,0,0-.8-3.191,2.529,2.529,0,0,0-2.045-.976,2.561,2.561,0,0,0-2.029.964A4.353,4.353,0,0,0,634.247,642.971Z" transform="translate(-584.251 -631.926)"/><path class="n" d="M678.586,656.914V654.99a4.96,4.96,0,0,1-1.847,1.622,5.181,5.181,0,0,1-2.416.593,4.72,4.72,0,0,1-2.324-.569,3.358,3.358,0,0,1-1.488-1.6,7.135,7.135,0,0,1-.46-2.848v-8.14h3.4v5.91a16.033,16.033,0,0,0,.189,3.324,1.815,1.815,0,0,0,.686.968,2.1,2.1,0,0,0,1.258.359,2.677,2.677,0,0,0,1.561-.48,2.431,2.431,0,0,0,.944-1.186,13.783,13.783,0,0,0,.254-3.469V644.05h3.4v12.864Z" transform="translate(-607.687 -639.157)"/><path class="o" d="M713.769,652.39l3.392.569a5.567,5.567,0,0,1-2.065,2.84,6.069,6.069,0,0,1-3.53.976,5.758,5.758,0,0,1-4.966-2.19,7.363,7.363,0,0,1-1.271-4.433,7.112,7.112,0,0,1,1.67-5.01,5.49,5.49,0,0,1,4.227-1.811,5.715,5.715,0,0,1,4.53,1.9q1.658,1.894,1.585,5.809h-8.528a3.446,3.446,0,0,0,.823,2.356,2.576,2.576,0,0,0,1.96.843,2.082,2.082,0,0,0,1.343-.436A2.7,2.7,0,0,0,713.769,652.39Zm.194-3.441a3.28,3.28,0,0,0-.762-2.247,2.452,2.452,0,0,0-3.606.04,3.138,3.138,0,0,0-.714,2.2h5.083Z" transform="translate(-628.735 -638.727)"/><path class="p" d="M742.07,649.677V631.92h7.547a12.905,12.905,0,0,1,4.135.48,4.084,4.084,0,0,1,2.065,1.7,5.114,5.114,0,0,1,.775,2.8,4.741,4.741,0,0,1-1.174,3.3,5.639,5.639,0,0,1-3.513,1.642,8.374,8.374,0,0,1,1.92,1.489,20.057,20.057,0,0,1,2.041,2.884l2.166,3.465h-4.288l-2.594-3.864a25.136,25.136,0,0,0-1.888-2.61,2.749,2.749,0,0,0-1.077-.738,5.893,5.893,0,0,0-1.8-.2h-.726v7.414H742.07Zm3.586-10.246h2.654a13.735,13.735,0,0,0,3.223-.218,1.929,1.929,0,0,0,1-.75,2.309,2.309,0,0,0,.363-1.331,2.134,2.134,0,0,0-.48-1.448,2.2,2.2,0,0,0-1.351-.7q-.436-.06-2.618-.06h-2.8v4.506Z" transform="translate(-650.655 -631.92)"/><path class="q" d="M782.33,656.92l4.639-6.624-4.445-6.236h4.155l2.275,3.538,2.4-3.538h4l-4.361,6.091,4.76,6.769h-4.179l-2.614-3.985-2.642,3.985Z" transform="translate(-674.674 -639.163)"/></g></g></g></svg>